<svg width="24" height="24" viewBox="0 0 24 24" fill="none" xmlns="http://www.w3.org/2000/svg">
<path d="M12.0783 17C12.295 17 12.4741 16.9292 12.6158 16.7875C12.7575 16.6458 12.8283 16.4667 12.8283 16.25V11.725C12.8283 11.525 12.7533 11.3542 12.6033 11.2125C12.4533 11.0708 12.2783 11 12.0783 11C11.8616 11 11.6825 11.0708 11.5408 11.2125C11.3991 11.3542 11.3283 11.5333 11.3283 11.75V16.275C11.3283 16.475 11.4033 16.6458 11.5533 16.7875C11.7033 16.9292 11.8783 17 12.0783 17ZM12.0033 9.15C12.2366 9.15 12.4325 9.075 12.5908 8.925C12.7491 8.775 12.8283 8.58333 12.8283 8.35C12.8283 8.11667 12.7491 7.91667 12.5908 7.75C12.4325 7.58333 12.2366 7.5 12.0033 7.5C11.77 7.5 11.5741 7.58333 11.4158 7.75C11.2575 7.91667 11.1783 8.11667 11.1783 8.35C11.1783 8.58333 11.2575 8.775 11.4158 8.925C11.5741 9.075 11.77 9.15 12.0033 9.15ZM12.0033 22C10.5866 22 9.26997 21.7458 8.0533 21.2375C6.83663 20.7292 5.7783 20.025 4.8783 19.125C3.9783 18.225 3.27413 17.1667 2.7658 15.95C2.25747 14.7333 2.0033 13.4167 2.0033 12C2.0033 10.6 2.25747 9.29167 2.7658 8.075C3.27413 6.85833 3.9783 5.8 4.8783 4.9C5.7783 4 6.83663 3.29167 8.0533 2.775C9.26997 2.25833 10.5866 2 12.0033 2C13.4033 2 14.7116 2.25833 15.9283 2.775C17.145 3.29167 18.2033 4 19.1033 4.9C20.0033 5.8 20.7116 6.85833 21.2283 8.075C21.745 9.29167 22.0033 10.6 22.0033 12C22.0033 13.4167 21.745 14.7333 21.2283 15.95C20.7116 17.1667 20.0033 18.225 19.1033 19.125C18.2033 20.025 17.145 20.7292 15.9283 21.2375C14.7116 21.7458 13.4033 22 12.0033 22ZM12.0033 20.5C14.3366 20.5 16.3366 19.6667 18.0033 18C19.67 16.3333 20.5033 14.3333 20.5033 12C20.5033 9.66667 19.67 7.66667 18.0033 6C16.3366 4.33333 14.3366 3.5 12.0033 3.5C9.66997 3.5 7.66997 4.33333 6.0033 6C4.33663 7.66667 3.5033 9.66667 3.5033 12C3.5033 14.3333 4.33663 16.3333 6.0033 18C7.66997 19.6667 9.66997 20.5 12.0033 20.5Z" fill="#1C5EDD"/>
</svg>