<svg width="30" height="30" viewBox="0 0 30 30" fill="none" xmlns="http://www.w3.org/2000/svg">
<path fill-rule="evenodd" clip-rule="evenodd" d="M15 30C23.2843 30 30 23.2843 30 15C30 6.71573 23.2843 0 15 0C6.71573 0 0 6.71573 0 15C0 23.2843 6.71573 30 15 30Z" fill="#F0F5FD"/>
<path fill-rule="evenodd" clip-rule="evenodd" d="M20.6256 9.62558C20.1531 9.1531 19.387 9.15317 18.9144 9.62572L14.9235 13.6167L11.0089 9.70209C10.5364 9.22962 9.77032 9.22968 9.29776 9.70224C8.82521 10.1748 8.82514 10.9409 9.29762 11.4134L13.2122 15.328L9.22125 19.3189C8.74869 19.7915 8.74863 20.5576 9.22111 21.0301C9.69359 21.5025 10.4597 21.5025 10.9322 21.0299L14.9232 17.039L18.8378 20.9535C19.3103 21.426 20.0764 21.426 20.5489 20.9534C21.0215 20.4808 21.0215 19.7147 20.5491 19.2423L16.6345 15.3277L20.6254 11.3367C21.098 10.8642 21.0981 10.0981 20.6256 9.62558Z" fill="#323232"/>
</svg>