<?xml version="1.0" encoding="UTF-8" standalone="no"?>
<!-- Generator: Adobe Illustrator 22.0.1, SVG Export Plug-In . SVG Version: 6.00 Build 0)  -->

<svg
   version="1.1"
   id="Layer_1"
   x="0px"
   y="0px"
   viewBox="0 0 30 30"
   style="enable-background:new 0 0 30 30;"
   xml:space="preserve"
   sodipodi:docname="wi-raindrop-snowflake.svg"
   inkscape:version="1.1.2 (0a00cf5339, 2022-02-04)"
   xmlns:inkscape="http://www.inkscape.org/namespaces/inkscape"
   xmlns:sodipodi="http://sodipodi.sourceforge.net/DTD/sodipodi-0.dtd"
   xmlns="http://www.w3.org/2000/svg"
   xmlns:svg="http://www.w3.org/2000/svg"><g
   id="g3651"
   transform="translate(-0.00234425,2.099872)"><path
     d="m 7.4267185,12.915128 c 0,-0.19 0.07,-0.36 0.2,-0.5 0.13,-0.14 0.29,-0.21 0.4800005,-0.21 0.189999,0 0.359999,0.07 0.49,0.21 0.13,0.14 0.199999,0.3 0.199999,0.5 0,0.19 -0.07,0.35 -0.199999,0.48 -0.130001,0.13 -0.300001,0.2 -0.480001,0.2 -0.1799995,0 -0.3499995,-0.07 -0.4799995,-0.2 -0.15,-0.14 -0.21,-0.3 -0.21,-0.48 z m 1.9800005,0 c 0,-0.19 0.07,-0.36 0.2,-0.5 0.13,-0.14 0.289999,-0.21 0.479999,-0.21 h 3.23 l -2.28,-2.28 c -0.14,-0.1199999 -0.21,-0.2799999 -0.21,-0.4699999 0,-0.19 0.07,-0.35 0.21,-0.49 0.14,-0.14 0.3,-0.21 0.49,-0.21 0.19,0 0.35,0.07 0.49,0.21 l 2.27,2.2699999 V 8.0251281 c 0,-0.19 0.07,-0.36 0.21,-0.5 0.14,-0.14 0.3,-0.21 0.5,-0.21 0.19,0 0.35,0.07 0.48,0.21 0.13,0.14 0.2,0.3 0.2,0.5 v 3.2299999 l 2.29,-2.2999999 c 0.14,-0.14 0.3,-0.21 0.48,-0.21 0.18,0 0.35,0.07 0.49,0.21 0.12,0.14 0.18,0.3 0.18,0.49 0,0.19 -0.06,0.35 -0.18,0.4699999 l -2.28,2.28 h 3.23 c 0.18,0 0.34,0.07 0.47,0.21 0.13,0.14 0.2,0.3 0.2,0.5 0,0.18 -0.07,0.34 -0.2,0.47 -0.13,0.13 -0.29,0.2 -0.47,0.2 h -3.23 l 2.29,2.29 c 0.12,0.12 0.18,0.28 0.18,0.47 0,0.19 -0.06,0.35 -0.18,0.49 -0.14,0.14 -0.31,0.21 -0.49,0.21 -0.18,0 -0.35,-0.07 -0.48,-0.21 l -2.29,-2.3 v 3.24 c 0,0.19 -0.07,0.36 -0.2,0.49 -0.13,0.13 -0.29,0.2 -0.48,0.2 -0.19,0 -0.36,-0.07 -0.5,-0.2 -0.14,-0.13 -0.21,-0.3 -0.21,-0.49 v -3.22 l -2.27,2.27 c -0.14,0.14 -0.3,0.21 -0.49,0.21 -0.19,0 -0.35,-0.07 -0.49,-0.21 -0.14,-0.14 -0.21,-0.3 -0.21,-0.49 0,-0.19 0.07,-0.34 0.21,-0.47 l 2.3,-2.29 h -3.24 c -0.19,0 -0.35,-0.07 -0.48,-0.2 -0.16,-0.11 -0.22,-0.27 -0.219999,-0.45 z m 0.01,4.84 c 0,-0.18 0.07,-0.35 0.21,-0.48 0.12,-0.14 0.28,-0.21 0.469999,-0.21 0.19,0 0.35,0.07 0.49,0.21 0.14,0.14 0.21,0.3 0.21,0.48 0,0.18 -0.07,0.35 -0.21,0.48 -0.14,0.14 -0.3,0.21 -0.49,0.21 -0.189999,0 -0.349999,-0.07 -0.469999,-0.21 -0.14,-0.13 -0.21,-0.29 -0.21,-0.48 z m 0,-9.7099999 c 0,-0.18 0.07,-0.35 0.21,-0.48 0.12,-0.14 0.28,-0.21 0.469999,-0.21 0.19,0 0.35,0.07 0.49,0.21 0.14,0.14 0.21,0.3 0.21,0.48 0,0.18 -0.07,0.35 -0.21,0.49 -0.14,0.14 -0.3,0.21 -0.49,0.21 -0.189999,0 -0.349999,-0.07 -0.469999,-0.21 -0.14,-0.14 -0.21,-0.31 -0.21,-0.49 z m 4.849999,11.7099999 c 0,-0.18 0.07,-0.34 0.21,-0.47 0.14,-0.13 0.3,-0.2 0.5,-0.2 0.19,0 0.35,0.07 0.48,0.2 0.13,0.13 0.2,0.29 0.2,0.47 0,0.19 -0.07,0.36 -0.2,0.49 -0.13,0.13 -0.29,0.2 -0.48,0.2 -0.19,0 -0.36,-0.07 -0.5,-0.2 -0.14,-0.13 -0.21,-0.29 -0.21,-0.49 z m 0,-13.7099999 c 0,-0.19 0.07,-0.36 0.21,-0.49 0.14,-0.13 0.3,-0.2 0.5,-0.2 0.19,0 0.35,0.07 0.48,0.2 0.13,0.13 0.2,0.3 0.2,0.49 0,0.18 -0.07,0.34 -0.2,0.47 -0.13,0.13 -0.29,0.2 -0.48,0.2 -0.19,0 -0.36,-0.07 -0.5,-0.2 -0.14,-0.13 -0.21,-0.29 -0.21,-0.47 z m 4.87,11.7099999 c 0,-0.18 0.07,-0.35 0.21,-0.48 0.12,-0.14 0.28,-0.21 0.47,-0.21 0.19,0 0.35,0.07 0.49,0.21 0.14,0.14 0.21,0.3 0.21,0.48 0,0.18 -0.07,0.35 -0.21,0.48 -0.14,0.14 -0.3,0.21 -0.49,0.21 -0.19,0 -0.35,-0.07 -0.47,-0.21 -0.14,-0.13 -0.21,-0.29 -0.21,-0.48 z m 0,-9.7099999 c 0,-0.18 0.07,-0.35 0.21,-0.48 0.12,-0.14 0.28,-0.21 0.47,-0.21 0.19,0 0.35,0.07 0.49,0.21 0.14,0.14 0.21,0.3 0.21,0.48 0,0.18 -0.07,0.35 -0.21,0.49 -0.14,0.14 -0.3,0.21 -0.49,0.21 -0.19,0 -0.35,-0.07 -0.47,-0.21 -0.14,-0.14 -0.21,-0.31 -0.21,-0.49 z m 2,4.8699999 c 0,-0.19 0.07,-0.36 0.2,-0.5 0.13,-0.14 0.3,-0.21 0.49,-0.21 0.18,0 0.34,0.07 0.47,0.21 0.13,0.14 0.2,0.3 0.2,0.5 0,0.18 -0.07,0.34 -0.2,0.47 -0.13,0.13 -0.29,0.2 -0.47,0.2 -0.19,0 -0.36,-0.07 -0.49,-0.2 -0.13,-0.13 -0.2,-0.29 -0.2,-0.47 z"
     id="path824"
     style="fill:#000000;fill-opacity:1"
     mask="url(#mask3645)" /><path
     d="m 22.57797,12.471754 c 0,-0.205466 -0.102733,-0.466249 -0.300296,-0.798156 -0.197563,-0.331906 -0.395127,-0.608494 -0.576885,-0.821863 -0.04741,-0.05532 -0.110635,-0.134343 -0.181758,-0.221271 -0.07112,-0.08693 -0.118538,-0.134343 -0.126441,-0.142245 l -0.292393,0.339809 c -0.221271,0.244978 -0.418835,0.521567 -0.600593,0.84557 -0.181758,0.324004 -0.276588,0.584788 -0.276588,0.798156 0,0.324004 0.110635,0.608495 0.339808,0.837669 0.221271,0.229173 0.49786,0.347711 0.829766,0.347711 0.324004,0 0.608495,-0.118538 0.837669,-0.347711 0.229173,-0.237076 0.347711,-0.513665 0.347711,-0.837669 z m -2.46559,3.279551 c 0,-0.229174 -0.06322,-0.489957 -0.189661,-0.798156 -0.12644,-0.300296 -0.284491,-0.584787 -0.474152,-0.837668 -0.363516,-0.482055 -0.703325,-0.885084 -1.035231,-1.209088 -0.03161,-0.02371 -0.102733,-0.08693 -0.205466,-0.18966 l -0.197563,0.18966 c -0.308199,0.292394 -0.65591,0.695423 -1.043134,1.201185 -0.205466,0.268686 -0.363517,0.553177 -0.489957,0.853474 -0.126441,0.300296 -0.189661,0.561079 -0.189661,0.790253 0,0.545274 0.181758,0.995719 0.553177,1.367138 0.371419,0.371419 0.829766,0.553177 1.367138,0.553177 0.537372,0 0.987816,-0.189661 1.359235,-0.56108 0.371419,-0.371419 0.545275,-0.829766 0.545275,-1.359235 z m -1.201185,-5.452747 c 0,-0.3398089 -0.260783,-0.7902529 -0.790253,-1.3434299 l -0.197563,0.221271 c -0.150148,0.173855 -0.284491,0.363516 -0.403029,0.584787 -0.118538,0.213368 -0.181758,0.3951259 -0.181758,0.5373719 0,0.221271 0.07902,0.395127 0.229173,0.545275 0.150148,0.142245 0.331906,0.221271 0.553177,0.221271 0.229174,0 0.418834,-0.07112 0.568982,-0.221271 0.142246,-0.150148 0.221271,-0.331907 0.221271,-0.545275 z"
     id="path3547"
     style="stroke-width:0.790253" /></g><defs
   id="defs7"><mask
     maskUnits="userSpaceOnUse"
     id="mask3543"><rect
       style="fill:#ffffff;fill-opacity:0.988447;stroke:none;stroke-width:0.1;stroke-miterlimit:4;stroke-dasharray:none"
       id="rect3545"
       width="12.946977"
       height="19.400789"
       x="15.056218"
       y="4.2259779" /></mask><mask
     maskUnits="userSpaceOnUse"
     id="mask3645"><rect
       style="fill:#ffffff;fill-opacity:0.988447;stroke:none;stroke-width:0.1"
       id="rect3647"
       width="10.231653"
       height="19.282732"
       x="5.4434996"
       y="3.2028124" /></mask></defs><sodipodi:namedview
   id="namedview5"
   pagecolor="#ffffff"
   bordercolor="#666666"
   borderopacity="1.0"
   inkscape:pageshadow="2"
   inkscape:pageopacity="0.0"
   inkscape:pagecheckerboard="0"
   showgrid="false"
   inkscape:zoom="19.421866"
   inkscape:cx="15.472252"
   inkscape:cy="17.068391"
   inkscape:window-width="1920"
   inkscape:window-height="999"
   inkscape:window-x="0"
   inkscape:window-y="0"
   inkscape:window-maximized="1"
   inkscape:current-layer="Layer_1" />

</svg>
